<?xml version="1.0" encoding="utf-8"?>
<!-- Generator: Adobe Illustrator 22.1.0, SVG Export Plug-In . SVG Version: 6.00 Build 0)  -->
<svg version="1.1" id="レイヤー_1" xmlns="http://www.w3.org/2000/svg" xmlns:xlink="http://www.w3.org/1999/xlink" x="0px"
	 y="0px" viewBox="0 0 917 80" style="enable-background:new 0 0 917 80;" xml:space="preserve">
<style type="text/css">
	.st0{fill:#FFFFFF;}
</style>
<g>
	<path class="st0" d="M22,30.9c-5.7,3.4-9.5,4.9-12.6,6.1L4.4,26c11.5-3.8,22.5-9.9,29.9-18.8h12.6C57.2,20.2,71.2,24.5,76.1,26
		L70.6,37c-3-1.3-7.7-3.3-13.5-7.1v5.5H22V30.9z M70.4,40.1v10.7c-6.1,11-19.8,21.8-39.6,26.5L24.4,67C45,62.4,51.5,56.4,55.7,50.8
		H8.6V40.1H70.4z M50.6,25.4c-5.3-3.9-8.6-7.4-10.3-9.1c-1.9,2-4.7,4.9-10.2,9.1H50.6z"/>
	<path class="st0" d="M112.7,62.7c7.9-0.6,24.2-1.9,24.2-21.5c0-12.2-7.1-17.4-15.4-18c-0.4,6.4-3.1,44.5-22.7,44.5
		c-9.9,0-16-10-16-21.5c0-16.1,11.3-34,35.4-34c16.8,0,30.9,9.2,30.9,30c0,8.3-2.4,16.9-9.9,23.7c-7.2,6.3-18.2,7.4-22.1,7.9
		L112.7,62.7z M94.3,46.1c0,2.8,0.8,9.3,5,9.3c5.5,0,9.7-14.3,11.1-31.8C94.3,28.3,94.3,44.3,94.3,46.1z"/>
	<path class="st0" d="M157,44c1.8-0.4,2.6-0.5,8.1-2V29.4h-7.5V19h7.5V7.4h10.4V19h5.2v10.4h-5.2v9.4c2.1-0.7,3.1-1,4.6-1.6
		l0.2,10.4c-1.8,0.8-3.1,1.4-4.8,2v21.7c0,2.6-1.6,5.5-5.5,5.5h-10.7l-1.8-11.3h6.1c1.3,0,1.5-0.4,1.5-1.7V53.1
		c-4.2,1.3-5.4,1.6-6.9,2L157,44z M176.1,64.8c2.7-1.5,10.9-6,18.5-15.5h-13.1V39.2h16.1v-4.1h10.4v4.1h18.5v10.1h-15.3
		c4.9,6.9,9.6,10.9,15.9,14.9l-5.4,10.4c-6.1-5.5-9.9-9.8-13.7-16.1v18.2h-10.4V58.9c-4.8,6.8-9.9,11.6-15.5,15.5L176.1,64.8z
		 M209.9,33.1c2.3-4,4.5-9.4,6.1-15.3c-10.9,1.3-22,2.2-33.1,2.2l-2-9.5c3.7-0.1,28.3-0.4,39.9-3.6l4.7,9.2
		c-2.1,0.5-4.2,1.1-8.8,1.6l9.8,3.2c-1.3,5.3-4.5,12.1-7.1,15.8L209.9,33.1z M189.9,21.5c2,3.7,3.9,8.9,5,12.4l-9.6,2.9
		c-0.8-3.9-2-7.7-4.4-12.3L189.9,21.5z M205,20.2c1.4,2.8,3,8.1,3.6,11.5l-9.5,1.7c-0.4-1.8-0.9-5.3-3.5-11.7L205,20.2z"/>
	<path class="st0" d="M288.1,55.4h-13.7v20.6h-10.3V55.4h-13.4c-1.8,13.8-6.5,19.2-8.5,21.3l-9.1-8.3c1.5-2.1,4-5.3,5.5-10.1
		c1.8-5.6,2-11.6,2-12.7V10h58.6v59.1c0,6.9-5.5,7.5-7.6,7.5H281l-1.8-11.2h7c1.6,0,1.9-0.4,1.9-2V55.4z M251.4,20.2v7.8h12.8v-7.8
		H251.4z M251.4,37.7v7.9h12.8v-7.9H251.4z M274.5,20.2v7.8h13.7v-7.8H274.5z M274.5,37.7v7.9h13.7v-7.9H274.5z"/>
	<path class="st0" d="M326.3,74.3c-3.4-5.2-8.3-11.6-14.4-18.1l9.1-6.1c5.3,4.7,12.3,12.8,15.8,17.2L326.3,74.3z"/>
	<path class="st0" d="M369.3,30.1c-1.8-3.3-6.4-11.3-10.8-16.5l9.9-5.9c4.1,4.7,8.5,11.4,11.4,16.7l-9.5,5.7h14.6V7.2h11.6v22.9
		h14.4l-9.1-5.7c4.2-4.8,8.5-11.6,10.9-16.9l11.2,5c-1.9,3.7-6.9,11.8-12.1,17.6h10.7v46.4h-11.3v-2.7h-55.3V63.1h55.3v-6.2h-51.8
		V46.7h51.8v-6.1h-54.7V30.1H369.3z"/>
	<path class="st0" d="M459.4,10.2c-0.2,2-0.3,2.6-1,7.7h16.6v10.9h-18.2C454,46,452.4,54.2,446.2,74l-12-3.7
		c5.4-11.8,9.1-28.2,11.2-41.5h-9.5V17.9h10.9c0.3-2.7,0.4-4.7,0.7-8.5L459.4,10.2z M474.3,52.2c-1.2,1.3-3.2,3.6-3.2,6
		c0,3.9,4.4,4.4,11.7,4.4c9.4,0,12.7-0.4,15.3-0.7l0.1,11.4c-1.9,0.1-3.9,0.2-9.7,0.2c-10.9,0-16.8-0.4-21.4-2.7
		c-1.6-0.8-7-3.9-7-10.5c0-1.8,0-6.8,5.9-13.3L474.3,52.2z M497.2,39.3c-2.3-0.1-4.5-0.2-7.7-0.2c-10.4,0-15.3,1.3-19.9,3.1
		l-3.4-9.6c6.7-3.1,14.9-4.8,31-4.6L497.2,39.3z"/>
	<path class="st0" d="M517.3,62.8C533.8,62.7,552,62.4,552,47c0-7.2-5-10.3-11-10.3c-5.3,0-10.9,1.2-30.3,5.2L508,30.8
		c8.2-1.4,26.7-4.5,33.4-4.5c12.1,0,22,7.2,22,20.8c0,20.1-16.6,26-43.7,25.9L517.3,62.8z"/>
	<path class="st0" d="M632.9,23.8c-1.7-0.1-4.2-0.2-6.9-0.2c-4.2,0-6.9,0.1-11.3,2.2c-6.9,3.1-19.5,12.1-19.5,23.3
		c0,10.4,12.3,11.2,17.9,11.6c7.5,0.4,10.1,0.4,13.1,0.2l-1.4,12.6c-16.9,0-23.9-1.5-30.4-4.5c-6.7-3.1-12-9.7-12-18.2
		c0-11,7.4-20.1,16.6-26.4c-4.7,0.4-25.8,2.3-30.1,2.8l-0.7-12.5c39.5-2,43.9-2.3,63.1-2.8c0.1,0,1.1,0,1.3-0.1L632.9,23.8z"/>
	<path class="st0" d="M669.8,15.7V9.8h11.7v5.9h22v10.2h-22v5.3h20.4v10h-20.4v7.4c8.4,3.4,16.5,9.3,20.6,12.8l-7.4,10.5
		c-2.9-3-8.2-7.9-13.2-10.9c-0.7,10.1-7.8,12.8-16.7,12.8c-12.4,0-19.2-5.9-19.2-14.1c0-8.8,8-14.2,19.9-14.2c2.4,0,3.2,0.1,4.4,0.4
		v-4.7h-24.5v-10h24.5v-5.3h-26.1V15.7H669.8z M669.8,55.8c-1.4-0.5-3.1-1.1-5.6-1.1c-2.7,0-7.5,0.9-7.5,4.7c0,4.1,5.4,4.4,7.1,4.4
		c6.1,0,6.1-3,6.1-4.8V55.8z"/>
	<path class="st0" d="M747.9,9.4h12v6.8h19.2v10.7h-19.2v15.7c0.5,2.5,1.3,5.8,1.3,10.1c0,19.1-19.7,22.2-32.2,22.3l-3.6-10.3
		c4.9,0,9.6-0.1,14.5-1.1c6.9-1.4,8.1-4.3,8.8-5.9c-1.5,1.1-3,2-6.8,2c-9.5,0-15-7.2-15-15.1c0-6.4,4.6-14.9,16.1-14.9
		c2.3,0,4,0.6,5.5,1l-0.1-3.9h-33.6V16.2h33.4L747.9,9.4z M748.8,43.7c0-0.8-0.5-5.2-5.3-5.2c-0.8,0-6.1,0.3-6.1,6.3
		c0,2.5,1.1,6.4,5.9,6.4c3.4,0,5.5-2.3,5.5-5.5V43.7z"/>
	<path class="st0" d="M813.3,9.4c-0.3,3.4-0.7,7.2-1.4,12.3h6.4c12.3,0,16.1,8,16.1,22.1c0,6.6-1.3,19.9-5.3,24.8
		c-2,2.6-5.5,5.1-11.2,5.1c-3.5,0-8.7-0.7-11.5-1.2l-0.8-11.5c6.6,1.1,9.3,1.2,9.9,1.2c1.2,0,3.8,0,5.1-3.2
		c2.2-5.6,2.5-16.9,2.5-17.5c0-6.7-1.6-9.1-6.6-9l-6.4,0.1c-2,9.9-6.1,29.9-12.6,40.9l-11.2-5.7c7.2-12.1,10.5-26.9,12-35.1
		l-10.3,0.1V21.7h12c0.6-6.1,0.7-8.3,1.1-12.9L813.3,9.4z M842,51.3c-0.4-17.3-5-25.2-9-30.8l10.1-4.9c7.2,9.8,10.1,19.6,11.1,33.7
		L842,51.3z"/>
	<path class="st0" d="M881.5,52.9c0-5.6,0.1-6.9,0.4-8.5c0.6-2.3,2.8-4.5,4.4-5.2l11.7-5.5c2-0.9,3.1-2.3,3.1-5.1
		c0-5.5-2.2-6.2-10.9-6.2c-9.2,0-11.2,0-11.2,8v1.1h-11.1c0-16.1,2.3-20,22-20c14.8,0,22.3,2.5,22.3,14.9c0,6.5-0.9,12.4-7.5,15.3
		l-8.8,3.8c-3.2,1.4-3.2,2.6-3.2,7.4H881.5z M881.2,69.7V58.1h11.5v11.5H881.2z"/>
</g>
</svg>
