<?xml version="1.0" encoding="utf-8"?>
<!-- Generator: Adobe Illustrator 22.1.0, SVG Export Plug-In . SVG Version: 6.00 Build 0)  -->
<svg version="1.1" id="レイヤー_1" xmlns="http://www.w3.org/2000/svg" xmlns:xlink="http://www.w3.org/1999/xlink" x="0px"
	 y="0px" viewBox="0 0 120 120" style="enable-background:new 0 0 120 120;" xml:space="preserve">
<style type="text/css">
	.st0{fill:#FFFFFF;}
</style>
<g>
	<path class="st0" d="M60.2,2.8c31.7,0,57.5,25.8,57.5,57.5s-25.8,57.5-57.5,57.5S2.7,92,2.7,60.3S28.5,2.8,60.2,2.8 M60.2,0.3
		c-33.1,0-60,26.9-60,60s26.9,60,60,60s60-26.9,60-60S93.3,0.3,60.2,0.3L60.2,0.3z"/>
</g>
<g>
	<path class="st0" d="M74.5,80.8c-2,1.4-6.8,4.4-14.5,4.4c-13.8,0-25-10.6-25-24.8c0-14.3,11.2-24.8,25-24.8c13.8,0,25,10.5,25,24.8
		c0,8.8-4,14.3-6.8,17.2l7.1,7.3h-6.9L74.5,80.8z M74.5,73.7c1.8-1.9,5.1-6.3,5.1-13.3c0-11-8.8-19.8-19.5-19.8
		c-10.8,0-19.5,8.8-19.5,19.8c0,11,8.7,19.8,19.5,19.8c3,0,6.9-0.7,10.7-3.2L59.1,65H66L74.5,73.7z"/>
</g>
</svg>
