<?xml version="1.0" encoding="utf-8"?>
<!-- Generator: Adobe Illustrator 19.0.1, SVG Export Plug-In . SVG Version: 6.00 Build 0)  -->
<svg version="1.1" xmlns="http://www.w3.org/2000/svg" xmlns:xlink="http://www.w3.org/1999/xlink" x="0px" y="0px"
	 viewBox="0 0 286 41" style="enable-background:new 0 0 286 41;" xml:space="preserve">
<style type="text/css">
	.st0{fill:#231815;}
	.st1{fill:#FFFFFF;}
	.st2{fill:#040000;}
</style>
<g id="レイヤー_2">
</g>
<g id="レイヤー_1">
	<g>
		<path class="st1" d="M141.5,7.4c2.4,0,4.3,2.4,4.3,5.3c0,1.1-0.3,2.4-0.7,3.2l0,0c-1,1.9-2.1,3.6-3.4,5.2v0c1.8,0.6,3.5,1.2,5,2
			v6.1c-2.3-1.7-5.1-3-8.4-4v14.2h-5.2l0-10.6c-2.1,1.2-4.4,2.6-6.7,3.1v-4.9c5.5-1.3,11.2-7,14.2-12.7l0-0.1
			c0.1-0.2,0.2-0.4,0.2-0.6c0-0.6-0.5-1-1-1h-12.5V7.4h5.8V1.5h5.3v5.9H141.5z"/>
		<polygon class="st1" points="152.8,1.5 152.8,7.4 146.7,7.4 146.7,12.5 152.8,12.5 152.8,34.3 143.9,34.3 143.9,39.5 165.4,39.5 
			165.4,34.3 158,34.3 158,12.5 164.7,12.5 164.7,7.4 158,7.4 158,1.5 		"/>
		<path class="st1" d="M168.4,21v-3.5h3.6v-4.9h3.6v4.9h2.3V21h-2.3v0.7c0.5,1.4,1.3,2.7,2.3,3.6v-2h7.3V21h-2.9
			c-0.1,0.5-0.3,0.8-0.4,1.3h-3.6c0.8-2.3,1.3-5.2,1.3-8.4c0-0.2,0-0.4,0-0.6h3.6c0,0.2,0,0.4,0,0.6c0,1.3-0.1,2.4-0.2,3.6h2.2v-4.9
			h3.6v4.9h6.1V21h-6.1v2.3h6.7v3.6h-3.8l5,12.2h-4.3l-3.6-9.3v9.7h-3.6l0-9.6c-1,4.2-3.8,7.7-7.2,9.3l0-4.2c1.5-1,4.1-4.4,4.1-8
			l-4,0v3.6c-0.9-0.4-1.7-1.1-2.5-2v11H172v-9.4c-1.1,1.7-2.3,3-3.8,3.7v-5c1.8-1.4,3.1-4.2,3.1-6.9c0-0.3,0.1-0.5,0-0.8H168.4z"/>
		<path class="st1" d="M207.4,26.9h4.2v-3.5h-12.3v3.5h4.4l0,8.7c-0.7,0-1.4,0.1-2.1,0.1c-1,0-2.1,0-3.1-0.2V39c1,0.1,2,0.2,3.1,0.2
			c4.3,0,8.2-0.8,11.2-2.4v-3.6c-1.4,0.9-3.3,1.4-5.4,1.9V26.9z"/>
		<path class="st1" d="M224.4,21v-3.6h-7.1v-4.9h-3.6v4.9h-15.1V21h15.1c0.1,5,0.5,10.1,1.4,14.2l0,0c0.6,3.3,3.1,4.3,6.1,4.3h3.3
			v-3.7h-3.4c-1.2,0-2.3-0.5-2.6-1.5h0c-0.8-3.7-1.2-8.5-1.2-13.3L224.4,21z"/>
		<polygon class="st1" points="224.1,16.7 223,12.6 219.3,12.6 220.3,16.7 		"/>
		<path class="st1" d="M254.1,21.9v-3.5c-4.9-0.5-9.2-3-11.8-5.9l-3.2,0c-2.6,2.8-6.6,5.3-11.5,5.8v3.5c1.3-0.1,2.6-0.3,3.9-0.6V24
			h18.9l0-2.8C251.6,21.5,252.8,21.7,254.1,21.9 M232.8,20.5c3.1-1,5.7-2.6,7.9-4.5h0c2.1,1.9,5,3.5,8.1,4.5H232.8z"/>
		<path class="st1" d="M227.8,30.7v-3.6h26.3v3.6l-15.2,0c-0.7,2-1.6,3.9-2.8,5.7h0c3.5-0.1,6.9-0.6,9.9-1.4l-1.4-2.9h4.1l3.8,7.5
			h-4.1l-0.7-1.4c-3.7,1.1-7.8,1.7-12.1,1.7c-2.1,0-4.5,0-6.5-0.3v-3.6c0.9,0.1,1.7,0.2,2.6,0.3l0,0c1.2-1.6,2.3-3.6,3.2-5.5
			L227.8,30.7z"/>
		<path class="st1" d="M267.8,16.9c1.7,0,3.1,1.6,3.1,3.6c0,0.8-0.2,1.7-0.5,2.3l0,0c-0.7,1.4-1.5,2.6-2.4,3.7v0
			c1.2,0.4,2.4,0.9,3.6,1.4v4.3c-1.6-1.2-3.6-2.1-5.9-2.8v10.1h-3.7l0-7.5c-1.5,0.8-3.1,1.9-4.8,2.2v-3.5c3.9-0.9,7.9-4.8,10-8.9
			l0-0.1c0.1-0.1,0.1-0.4,0.1-0.5c0-0.4-0.3-0.7-0.7-0.7h-8.9v-3.6h4.2v-4.4h3.7v4.4H267.8z"/>
		<polygon class="st1" points="275.8,12.5 275.8,16.9 271.5,16.9 271.5,20.5 275.8,20.5 275.8,36 269.4,36 269.4,39.5 284.7,39.5 
			284.7,36 279.5,36 279.5,20.5 284.2,20.5 284.2,16.9 279.5,16.9 279.5,12.5 		"/>
		<path class="st1" d="M81.1,14.9v-8h1.2v-5H63.2V7l2.2,0v7.9h-3.2V20h3.2l0,7.9c0,4.8,0.2,6.4-2.8,6.4v5.1c7.5,0,8-6.4,8-12.3l0-7
			h5.3v19.3h5.2V20H83v-5.1H81.1z M70.6,14.9 M70.6,6.9h5.3v8h-5.3V6.9z"/>
		<path class="st1" d="M61.1,18.1c0-2.1-1.6-3.7-3.8-4h-5.9c0.2-1.6,0.3-2.5,0.3-4.3c0-0.6,0-2.3,0-2.9h9.3V1.9H43.5V7l3,0
			c0,0.6,0,2.3,0,2.9c-0.1,6.6-1.5,12.6-4.1,14.9v6.3c0.9-0.6,2.3-2,3.1-3v11.2h15.6L61.1,18.1z M49.8,34.3l0-12.8
			c0.2-0.7,0.5-1.5,0.7-2.3h3.7c0.9,0,1.7,0.8,1.7,1.7v13.3H49.8z"/>
		<path class="st1" d="M40.9,11.1c-6.7-0.3-13.7-5.7-17.3-9.6l-5.1,0C14.8,5.4,8,10.3,1.3,11.1v4.7c1.9-0.2,4.1-0.5,5.8-0.9V19h11.4
			v4.8H2.9v5.1l15.5,0v5.4H1.9v5.1h38.3v-5.1H23.6v-5.4l15.5,0v-5.1H23.6l0-4.8h11.4l0-4.2c1.7,0.5,4.2,0.7,6,0.9V11.1z M9.8,13.8
			c3.9-1.3,8.6-5.3,11.3-7.7l0,0c3,2.7,6.6,6.3,11,7.7H9.8z"/>
		<path class="st1" d="M124.9,27c-6.8-3.8-13.2-8.8-15-14.4l14.7,0V7.4h-16.9V1.5h-5.3v5.9l-16.8,0v5.2h14.2
			c-2.4,5-6.9,10.8-14.5,14.6v4.7c2.1-0.7,4.2-1.8,6.2-3.1v3.2h10.8v7.6h5.3l0-7.6h10.9v-3.2c2.3,1.5,4.6,2.6,6.3,3.2V27z
			 M93.8,27.1c3.8-2.9,7-6.4,8.6-9.7l0,9.7H93.8z M107.7,27.2v-8.6c1.5,2.8,5,6,8.6,8.6H107.7z"/>
	</g>
</g>
</svg>
