<?xml version="1.0" encoding="utf-8"?>
<!-- Generator: Adobe Illustrator 22.1.0, SVG Export Plug-In . SVG Version: 6.00 Build 0)  -->
<svg version="1.1" id="レイヤー_1" xmlns="http://www.w3.org/2000/svg" xmlns:xlink="http://www.w3.org/1999/xlink" x="0px"
	 y="0px" viewBox="0 0 530 60" style="enable-background:new 0 0 530 60;" xml:space="preserve">
<style type="text/css">
	.st0{fill:#19448E;}
	.st1{fill:none;stroke:#19448E;stroke-width:3.3075;stroke-linejoin:round;stroke-miterlimit:10;}
</style>
<g>
	<path class="st0" d="M85.7,35.8V30h9.8v-3.5l6.3,0.4c0.5,0,1.1,0.1,1.1,0.6c0,0.4-0.4,0.6-1.1,0.8v1.6h11v5.8h-9.4
		c1.7,2.3,5,5.5,11.4,9c-2.6,1.3-4.2,3.8-4.9,4.7c-2-1.1-4.5-2.5-8.2-6.5v7.5h-6.2v-8.6c-2.4,3-5.7,6.1-8.6,7.6
		c-1.1-1.7-2.1-2.3-4.7-4.2c0,1.8-0.1,5.3-7.6,5.3c-0.5,0-0.9,0-1.5,0c0-2.1-1.1-5-2-6.7c1.7,0.3,3.3,0.4,3.5,0.4
		c1.2,0,1.2-0.7,1.2-2.7V35c-1.4,0.6-2.3,0.8-3.1,1c0,0.4,0,1.2-0.7,1.2c-0.1,0-0.5-0.2-0.6-0.6l-1.2-6.7c1.9-0.3,4-0.8,5.7-1.2V22
		h-4.5v-5.9h4.4V8.6l6.5,0.5c0.4,0,0.7,0.2,0.7,0.6c0,0.5-0.4,0.6-0.9,0.8v5.6h3.8v3l4.9-1.7c-2.6,0.2-3.5,0.1-4.2,0.1
		c-0.2-1.1-0.7-3.3-1.8-5.7c8.4,0.1,14.1-0.1,22.8-3.5l4.2,5.2c0.2,0.2,0.4,0.5,0.4,0.7c0,0.4-0.3,0.5-0.5,0.5
		c-0.3,0-0.6-0.1-1.3-0.5c-8.3,2.2-14,2.8-19.3,3.3c1.3,2.4,3,6.3,3.5,7.8c-3.7,1.6-4.1,1.8-5.7,2.6c-1.1-3.5-1.6-5-2.9-8V22h-3.8
		v4.8c2.3-0.8,3-1.1,3.8-1.5c-0.2,1-0.3,1.9-0.5,6c-0.7,0.5-1.9,0.9-3.3,1.6v12c5.6-2.7,8.3-6.5,10.1-9.1
		C92.3,35.8,85.7,35.8,85.7,35.8z M99.4,16.4c1.1,2.5,1.8,4.9,2.3,7.9c-2,0.4-2.7,0.6-5.7,1.5c-0.6-2.3-1.4-4.8-2.6-7.5L99.4,16.4z
		 M112.8,17.6c0.3,0.1,0.6,0.3,0.6,0.6c0,0.6-0.7,0.8-1.4,1c-1.5,3.7-2.8,6.3-4.6,9.3c-1.2-0.6-2.9-1.7-5.6-2.6
		c1.7-3.1,3.4-7.1,4.4-10.5L112.8,17.6z"/>
	<path class="st0" d="M142.5,48.6h-6.8V36.3h-8.1c-0.5,3.3-1.4,9.6-4.3,14.8c-2.2-1.7-5.8-2.5-7.5-2.7c2.4-3,4.8-9.2,4.8-19.6V10
		h36.6v35c0,5.4-3.1,5.7-9.8,5.7c-0.2-2.5-0.9-4.4-2.5-7c0.6,0.1,2.3,0.3,3.4,0.3c1.9,0,1.9-0.3,1.9-2v-5.6h-7.7V48.6z M135.7,15.8
		h-7.6V20h7.6V15.8z M135.7,25.9h-7.6v4.3h7.6V25.9z M142.5,20h7.7v-4.2h-7.7V20z M142.5,30.1h7.7v-4.3h-7.7V30.1z"/>
	<path class="st0" d="M188.2,9.4l7.8,0.4c0.4,0,0.7,0.1,0.7,0.5c0,0.5-0.5,0.7-0.7,0.8v7.5h8v7.2h-8.1c-0.2,6.9-1,9.2-1.4,10.4
		c-2.1,6.1-7.3,11.9-13.6,14.4c-1.8-2.9-4.5-4.8-5.7-5.7c8.1-2.9,10.7-8.3,11.3-9.5c1.3-3,1.5-5.9,1.7-9.7h-8V36h-7.5V25.8H164v-7.2
		h8.7V9.7l7.2,0.4c0.4,0,1,0,1,0.6c0,0.3-0.4,0.5-0.7,0.7v7.2h8C188.2,18.6,188.2,9.4,188.2,9.4z"/>
	<path class="st0" d="M235.1,49.9h-7.9V29c-4.1,2.5-8.3,4.8-12.7,6.5c-1.3-2.5-3.4-4.8-5.5-6.6c17.5-5,28.5-17.5,31.3-21.1l6.1,4.8
		c0.3,0.2,0.6,0.5,0.6,0.9c0,0.4-0.4,0.6-0.7,0.6c-0.2,0-0.4,0-0.9-0.1c-3.3,3.9-9.9,9.2-10.2,9.4v26.5H235.1z"/>
	<path class="st0" d="M278,21.3c6.8,3.5,12.7,7.4,16.1,10.8c-2.1,3-2.3,3.3-4.3,6.4c-1.5-1.4-6.1-5.7-14.4-10.2v21.6h-7.8V9.3
		l7.8,0.4c0.3,0,0.9,0,0.9,0.5s-0.5,0.6-0.9,0.7V25L278,21.3z"/>
	<path class="st0" d="M325.6,18.8h12v4h-12v1.6h12v4h-12V30h15.5v4.4h-14.2c-0.1,0.6-1,0.6-1.3,0.6v1.3h17.5V41h-11.4
		c5.3,3.5,10.7,4.7,11.9,5c-1.3,1.2-2.2,2.4-3.6,5c-4.2-1.4-10.3-4.2-14.4-8v7.8H319V43c-2.4,2.1-7.5,5.7-13.8,8
		c-1.4-2.3-2.7-3.5-4.6-4.9c3.5-0.9,7.4-1.9,12-5.1h-11.4v-4.7h17.9v-1.9h-12.3V21.9c-0.4,0.5-0.9,0.9-2.1,2
		c-2.2-1.9-3.4-2.7-5.2-3.5c4-3.6,7.5-7.6,10-12.5l5.7,1.7c0.5,0.1,1,0.3,1,0.7c0,0.5-0.8,0.6-1.3,0.7c-0.2,0.5-0.3,0.7-0.9,1.6h5.2
		c0.8-1.2,1.7-2.6,2.4-4.3l6.5,1c0.5,0.1,1.2,0.2,1.2,0.7s-0.7,0.6-1.6,0.8c-0.2,0.5-0.9,1.4-1.2,1.7h14v4.6h-14.9V18.8z
		 M318.9,17.2h-6v1.6h6V17.2z M318.9,22.8h-6v1.6h6V22.8z M318.9,28.4h-6V30h6V28.4z"/>
	<path class="st0" d="M358.7,11.7c0.1,1.8,0.2,3.9,1.1,7.5c3.1-1.7,6-2.4,8.3-2.7c0.6-4.3,0.7-5.1,0.7-7.9l7.8,1.8
		c0.6,0.1,0.9,0.3,0.9,0.7c0,0.6-0.7,0.6-1,0.6c0,0.2-0.9,4.1-1,4.8c7.5,1.1,13.2,6.7,13.2,15.5c0,13.1-12.3,17-17.7,17.9
		c-1.3-2.7-2.3-4.1-4-6c1.4-0.1,4.7-0.4,8.6-2.5s6-4.8,6-9.5c0-7.4-5.7-8.4-7.6-8.7c-1.3,4.8-3,9.2-5.9,13.6
		c0.5,0.6,0.9,1.2,2.1,2.6c-2.9,2.1-5,4.3-5.8,5.3c-0.6-0.9-0.9-1.3-1.3-2c-4.3,4-7,4.2-8.6,4.2c-4,0-6.9-2.9-6.9-7.9
		c0-1.7,0.4-8.6,6.5-15c-0.2-0.6-1.7-4.9-2.8-9.7L358.7,11.7z M356.5,30.4c-1.5,2.2-2.7,5.1-2.7,7.5c0,0.3,0,1.6,1.3,1.6
		c1.4,0,3.1-1.8,4.2-3C357.7,33.1,356.9,31.3,356.5,30.4z M361.7,25.4c1,2.4,1.3,3.1,2.2,4.8c1.8-3.3,2.3-5.2,2.8-7
		C365.2,23.7,363.6,24.2,361.7,25.4z"/>
	<path class="st0" d="M418.8,10c0.4,0.1,0.8,0.1,0.8,0.6s-0.5,0.6-0.8,0.6c-0.2,1.8-0.2,2.2-0.2,2.7c2.1,0,9.2-0.1,12.7,0.3v6.9
		c-2.2-0.2-6.2-0.6-12.9-0.4v5.1c1.3-0.1,6.4-0.6,11.7-2.2v6.9c-3.8,0.8-7.6,1.2-11.5,1.5c0,2,0,2.2,0.1,4.1
		c5.8,0.8,13.7,4.8,15.4,6.1c-1.5,1.4-2.3,2.4-5.1,5.8c-2.3-1.9-6.4-4.6-9.8-5.8c0.1,2.4,0.4,7.8-9.7,7.8c-7.1,0-12.3-3.3-12.3-7.5
		c0-5.2,6.6-7.5,14.3-7.4c0-1.1,0-1.1,0-2.7c-4.6,0.1-12.9,0.2-12.9-4.3c0-1.6,0.8-3.1,3.2-5.6l5.1,1.2c-0.8,1.1-1,1.2-1,1.6
		c0,0.5,0,1.3,5.4,1.1c0-0.8,0-4.6,0-5.3c-5.7,0.2-10.6,0.9-14.4,1.4v-7.4c2.3-0.2,12.3-0.7,14.4-0.8c0-1.7,0-3.5-0.2-5.7L418.8,10z
		 M409.2,40.4c-0.2,0-4.6,0-4.6,1.9c0,1.5,2.5,1.7,3.3,1.7c2.3,0,3.6-0.8,3.4-3.4C410.8,40.5,410.1,40.4,409.2,40.4z"/>
	<path class="st0" d="M455.3,10.4c0.7,0.1,1.1,0.1,1.1,0.6c0,0.4-0.3,0.6-0.9,0.8c-1.1,5.4-1.5,12.7-1.5,18.3
		c0,10.4,1,12.4,4.6,12.4c7.9,0,14.8-10.6,16.1-13.2c1.2,1.5,3.2,4,5.3,6c-5.2,8.5-13.1,14.9-22.4,14.9c-10.2,0-11-8.6-11-20.2
		c0-2.7,0.5-14.3,0.5-16.7c0-1.3,0-2.9-0.1-4.2L455.3,10.4z"/>
	<path class="st0" d="M506.9,10.4c0.4,0.1,0.9,0.3,0.9,0.7c0,0.6-0.6,0.6-1,0.6c-0.2,0.7-1,4-1.1,4.6c4.2-0.8,5.8-1.5,7.6-2.3
		l0.8,7.2c-1.4,0.5-4,1.2-10.4,2.2c-1.8,5.8-5.1,15.8-12.1,26.9c-1.9-1.2-3.6-2-6.9-3.5c3.9-4.8,8.7-13.7,11.4-22.3
		c-2.8,0.2-3.4,0.2-8.4,0.3l-0.6-7.5c1.4,0.1,3,0.2,5.3,0.2c2.1,0,3.5,0,5.5-0.2c0.6-3.5,1-6.4,1.2-8.7L506.9,10.4z M510.3,38.1
		c-1.1,1.5-1.2,2.3-1.2,2.7c0,0.6,0.3,0.9,0.8,1.2c1,0.6,3.6,0.8,6.2,0.8c4.8,0,8.2-0.9,10.1-1.5c-0.1,0.9-0.3,1.9-0.3,3.6
		c0,1.7,0.2,2.9,0.3,3.8c-3.2,0.6-6.3,0.8-9.5,0.8c-6,0-14-0.9-14-7.4c0-1.8,0.4-3.3,1.8-6L510.3,38.1z M508.2,25.1
		c4.2-0.8,9.3-0.8,10.2-0.8c4,0,5.8,0.3,6.8,0.5c-0.3,3.4-0.3,4.1-0.4,7.2c-2.3-0.6-4.5-0.8-6.9-0.8c-2.7,0-6.4,0.4-9.7,0.8V25.1z"
		/>
</g>
<g>
	<path class="st1" d="M52.8,19.9c-0.3-0.6-0.6-1.2-0.9-1.7l-1.8,1.5L52.8,19.9z"/>
	<path class="st1" d="M22.3,47.1c-1.2,0-2.6,1.5-5.6-1.5c-2.9-2.9-1.8-5.8-1.8-5.8L38.1,6.6c-2.6-0.9-5.4-1.4-8.3-1.4
		c-14,0-25.4,11.4-25.4,25.4S15.7,56,29.8,56s25.4-11.4,25.4-25.4c0-2.4-0.3-4.7-0.9-6.8L22.3,47.1z"/>
	<path class="st1" d="M58.7,20.5l-5.9-0.6c0.6,1.2,1,2.5,1.4,3.8L58.7,20.5z"/>
	<path class="st1" d="M52,18.2l1.6-1.2c0,0,2.6-1.5-0.3-4.4l-7.9-7.9c0,0-3.2-3.2-6,0.1l-1.2,1.8C44,8.6,48.9,12.8,52,18.2z"/>
</g>
<path class="st1" d="M36,17.9L23.9,34c0,0-0.9,1.5,0.5,3c0,0,0.9,0.9,2.9,0l25.8-20.5c0,0,2.6-1.5-0.3-4.4l-7.9-7.9
	c0,0-3.2-3.2-6,0.1L14.5,39.3c0,0-1.2,2.9,1.8,5.8c2.9,2.9,4.4,1.5,5.6,1.5l36.5-26.5"/>
</svg>
