<?xml version="1.0" encoding="utf-8"?>
<!-- Generator: Adobe Illustrator 21.1.0, SVG Export Plug-In . SVG Version: 6.00 Build 0)  -->
<svg version="1.1" id="レイヤー_1" xmlns="http://www.w3.org/2000/svg" xmlns:xlink="http://www.w3.org/1999/xlink" x="0px"
	 y="0px" viewBox="0 0 203.5 198.3" style="enable-background:new 0 0 203.5 198.3;" xml:space="preserve">
<style type="text/css">
	.st0{fill:none;stroke:#FFFFFF;stroke-width:5;stroke-linecap:round;stroke-linejoin:round;stroke-miterlimit:10;}
	.st1{fill:none;stroke:#FFFFFF;stroke-width:4;stroke-linecap:round;stroke-linejoin:round;stroke-miterlimit:10;}
	.st2{fill:none;stroke:#FFFFFF;stroke-width:3;stroke-linecap:round;stroke-linejoin:round;stroke-miterlimit:10;}
</style>
<path class="st0" d="M100.1,3.6c-1.6,0-2.9,1.3-2.9,2.9v95.5c0,1,0.6,2,1.5,2.5l82.7,47.7c0.5,0.3,1,0.4,1.5,0.4c1,0,2-0.5,2.5-1.5
	c8.6-14.9,13.2-31.9,13.2-49.2C198.5,47.7,154.3,3.6,100.1,3.6z"/>
<path class="st0" d="M87.8,24.2c-46.5,0.4-84,38.1-84,84.7c0,46.8,37.9,84.7,84.7,84.7c31.5,0,58.9-17.2,73.5-42.7"/>
<line class="st0" x1="16" y1="151.9" x2="90.1" y2="109.3"/>
<polyline class="st1" points="150,86.4 150,106.3 124.1,106.3 124.1,46.5 150,38.2 150,57.6 "/>
<polygon class="st2" points="136.3,65.2 157.8,65.2 157.8,57.6 176.2,71.2 157.8,84.8 157.8,78.1 136.3,78.1 "/>
</svg>
