<?xml version="1.0" encoding="utf-8"?>
<!-- Generator: Adobe Illustrator 22.1.0, SVG Export Plug-In . SVG Version: 6.00 Build 0)  -->
<svg version="1.1" id="レイヤー_1" xmlns="http://www.w3.org/2000/svg" xmlns:xlink="http://www.w3.org/1999/xlink" x="0px"
	 y="0px" viewBox="0 0 258 213" style="enable-background:new 0 0 258 213;" xml:space="preserve">
<style type="text/css">
	.st0{fill:none;stroke:#FFFFFF;stroke-width:4.3;stroke-linecap:round;stroke-linejoin:round;stroke-miterlimit:10;}
	.st1{fill:none;stroke:#FFFFFF;stroke-width:2;stroke-linecap:round;stroke-linejoin:round;stroke-miterlimit:10;}
	.st2{fill:none;stroke:#FFFFFF;stroke-width:4;stroke-linecap:round;stroke-linejoin:round;stroke-miterlimit:10;}
</style>
<g>
	<rect x="185.2" y="52.4" class="st0" width="47.5" height="62.5"/>
	<rect x="212" y="62.3" class="st1" width="13.1" height="14.9"/>
	<rect x="192.1" y="62.3" class="st1" width="13.1" height="14.9"/>
	<rect x="212" y="83.4" class="st1" width="13.1" height="14.9"/>
	<rect x="192.1" y="83.4" class="st1" width="13.1" height="14.9"/>
</g>
<polygon class="st0" points="74,65.6 74,116.7 26.9,116.7 26.9,57.6 63.9,57.6 63.9,65.6 "/>
<rect x="53.1" y="71" class="st1" width="14.5" height="16.5"/>
<rect x="33.5" y="71" class="st1" width="14.5" height="16.5"/>
<rect x="53.1" y="92" class="st1" width="14.5" height="16.5"/>
<rect x="33.5" y="92" class="st1" width="14.5" height="16.5"/>
<g>
	<path class="st2" d="M175.4,193.7c-0.6,0-1.2,0-1.8,0l0,0h-9.4h-5.5h-4.1c-6,0-10.6,0-17.7,0c0-6.7,0-13.5,0-20.1
		c0-2.6,0-5.1,0-7.7v-18c0-26,0-52.8,0-79.3c1.1-0.3,2.2-0.8,3.3-1.3l0,0l0,0c6.2-3.2,10.4-8,12.3-14.4c8.8,0,17.4,0,24,0
		c2.8,0,5.5,0,8.3,0v-1.1h33.3c-1.4-3.4-2.8-6.8-4.2-10.2l0,0l0,0c-1-2.6-3-3.9-5.9-3.9l0,0c-8.4,0-16.9,0-25.1,0
		c-9.9,0-20.2,0-30.3,0c-1.2-3.8-3.1-7-5.7-9.6c-2.5-2.5-5.6-4.5-9.2-5.8c0-3.1,0-6.1,0-8.9c0-1.2-0.1-2.7-0.9-4.2
		c-1.5-2.8-4.2-4.5-7.3-4.5l0,0c-0.7,0-1.5,0.1-2.2,0.3c-3.8,0.9-6.2,4.2-6.3,8.3c0,2.5,0,5.1,0,7.6c0,0.5,0,1,0,1.5
		c-3.5,1.3-6.5,3.2-9,5.6c-2.6,2.6-4.6,5.9-5.9,9.8c-8.9,0-18,0-26.8,0c-9.4,0-19.1,0-28.7,0l0,0c-3.1,0-5.3,1.6-6.1,4.5l0,0l0,0
		c-0.1,0.2-0.2,0.5-0.3,0.8s-0.3,0.5-0.4,0.8l0,0l0,0l-2.3,5.6c-0.3,0.7-0.6,1.5-0.9,2.2l-2.3,5.6h26.5v8h6l-1.7-5.6v-6.9
		c2.9,0,5.9,0,8.8,0c9.3,0,18.8,0,28.3,0c1.2,3.8,3.1,7,5.7,9.6c2.7,2.8,6.1,4.8,10.1,6.2c0,24.2,0,48.7,0,72.5c0,5.5,0,11,0,16.5
		c0,3,0,5.9,0,8.9c0,8.9,0,18,0,27c-6.8,0-11.6,0-16.6,0c-1.9,0-3.9,0-6.1,0c-2.5,0-5.3,0-8.4,0c-1.1,0-2.3,0-3.4,0s-2.3,0-3.4,0
		c-2.5,0-4.4,0-6.2,0c-3.8,0-7,2.8-7.5,6.4l0,0l0,0c-0.5,4.3,1.6,7.5,5.6,8.5l0.4,0.1h0.4c2.5,0.1,41.6,0.2,67.6,0.2
		c6.6,0,12.5,0,17.5,0h3.8v-0.1c7.2,0,10.4,0,11.1-0.1h0.4l0.4-0.1c4-1,6.1-4.2,5.6-8.5C182.4,196.5,179.2,193.7,175.4,193.7z"/>
	<path class="st2" d="M88.6,152.5c3.6-4.6,6.3-9.8,8-15.4c1.6-5.2,2.3-10.9,2.1-17c-0.1-3.8-2.8-5.1-5.1-5.1c-0.1,0-0.2,0-0.2,0
		c-0.9,0-1.9,0-2.9,0c-0.7,0-1.4,0-2.1,0c-0.2-0.5-0.5-1.1-0.7-1.7c-0.5-1.3-1.1-2.6-1.7-3.9c-0.5-1.1-3.8-9.1-7.1-17.1l-4.3-13.8
		v38.1H26.5V85.1l-4.3,10.4c-2.6,6.3-5.3,13-8,19.5c-0.1,0-0.1,0-0.2,0c-0.8,0-1.5,0-2.3,0c-1,0-1.9,0-2.6,0c-0.6,0-1.1,0-1.6,0
		c-0.1,0-0.2,0-0.4,0L3,115.1l0.4,4.1c0.1,1.4,0.2,2.9,0.4,4.3c0.2,3.3,0.5,6.4,1.1,9.6c1.1,5.9,3.5,11.4,7,16.6
		c8.9,13,21.6,20.1,37.7,21.1c0.8,0,1.5,0.1,2.3,0.1c4.9,0,9.9-0.9,15.2-2.8C75.8,164.9,83,159.7,88.6,152.5z"/>
	<path class="st2" d="M254.4,118.6l-0.2-3.6h-3.6c-2.1,0-3.9,0-6.4,0c-2.3-5.8-4.7-11.5-7.1-17.4l-0.7-1.8l-4.1-9.9v29.3h-47.5V79.4
		l-6.7,16.1c-0.7,1.6-1.3,3.2-2,4.7c-2,4.8-4.1,9.8-6.1,14.8c-0.6,0-1.2,0-1.9,0c-0.8,0-1.5,0-2.3,0c-0.7,0-1.5,0-2.2,0h-3.5
		l-0.3,3.5c-0.7,9.5,1.1,18.8,5.3,26.8c4.4,8.5,11.3,15.3,19.9,19.8c7.5,3.9,15,5.8,22.5,5.8c9.5,0,18.8-3.2,27.6-9.5
		C249,151.4,255.5,137,254.4,118.6z"/>
</g>
<path class="st2" d="M255.5,155.3c-1.7,4.3-4.5,8.3-8,11.8c-6.6,6.4-15,10.2-23.5,10.7h-0.1"/>
<path class="st2" d="M2.5,155.3c1.7,4.3,4.5,8.3,8,11.8c6.6,6.4,15,10.2,23.5,10.7h0.1"/>
<circle class="st2" cx="129" cy="45" r="15"/>
</svg>
