<?xml version="1.0" encoding="utf-8"?>
<!-- Generator: Adobe Illustrator 24.1.1, SVG Export Plug-In . SVG Version: 6.00 Build 0)  -->
<svg version="1.1" id="レイヤー_1" xmlns="http://www.w3.org/2000/svg" xmlns:xlink="http://www.w3.org/1999/xlink" x="0px"
	 y="0px" viewBox="0 0 200.4 71.1" style="enable-background:new 0 0 200.4 71.1;" xml:space="preserve">
<style type="text/css">
	.st0{fill:#FFFFFF;}
</style>
<g>
	<g>
		<path class="st0" d="M50,6.7c-4.5,0.1-7.7,2.6-7.7,4.6c0,2.1,3.5,2.3,4.9,2.3L47,14.5c-3-0.1-5.6-0.9-5.6-3.2
			c0-2.4,2.9-3.8,4.1-4.4c-1.7,0.3-4.8,0.8-8.7,1.6l-0.1-1c0.5-0.1,3-0.4,3.5-0.5l6.1-4.4c-3.1,0.3-5,0.4-7.2,0.4L39,2.2
			c2.5,0,5.5,0,8.4-0.4l0.4,0.8l-6,4.3c3.9-0.6,4.3-0.6,8.1-1L50,6.7z"/>
		<path class="st0" d="M55,8.4c-0.3,0.2-2.2,1.4-2.2,2.5c0,1.8,3.6,2,5.7,2c2.6,0,4.4-0.4,5.1-0.5l0.1,1.1c-0.8,0.1-2.7,0.4-5.1,0.4
			c-2.5,0-6.8-0.3-6.8-2.9c0-1.3,1.3-2.4,2.6-3.3L55,8.4z M62.2,3.9c-1.8-0.3-3.5-0.4-5.3-0.4s-3.1,0.1-3.8,0.2v-1
			c0.7-0.1,1.8-0.2,3.6-0.2c2.7,0,4.7,0.3,5.5,0.4V3.9z"/>
		<path class="st0" d="M67.9,1.9C67.4,4.4,67,6.8,67,9.4c0,2.4,0.3,4,0.5,4.8l-0.9,0.1c-0.4-1.5-0.5-3.4-0.5-5
			c0-3.4,0.6-6.1,0.9-7.5L67.9,1.9z M78.3,13.3c-0.6,0.1-1.8,0.3-3.5,0.3c-2.3,0-4.7-0.3-4.7-2.5c0-1.1,0.6-1.8,0.9-2.2l0.8,0.2
			c-0.3,0.4-0.8,1-0.8,1.9c0,1.3,1.4,1.7,3.5,1.7c1.9,0,3.1-0.2,3.7-0.4L78.3,13.3L78.3,13.3z M70.8,3.3c0.9-0.1,2.5-0.2,4.4-0.2
			c0.9,0,1.7,0,2.5,0.1v0.9C77.2,4.1,76.4,4,75,4c-2,0-3.6,0.2-4.2,0.3V3.3z"/>
		<path class="st0" d="M85.5,1.4c-0.1,0.4-0.8,2.1-0.9,2.4c1.2-0.1,1.8-0.1,2.9-0.3v0.9c-1.3,0.2-2.2,0.2-3.2,0.3
			C83,8,82.6,9.2,81.3,12l-0.9-0.4c1.6-3,2.6-5.6,3-6.8c-0.2,0-1.2,0-2.7,0v-1c0.5,0,0.9,0,1.8,0c0.7,0,1,0,1.3,0
			c0.5-1.5,0.6-1.8,0.9-2.7L85.5,1.4z M92.9,13.2c-1-0.8-1.8-1.2-2.8-1.7c0,0.3,0,0.4,0,0.6c0,0.7,0,2.5-2.9,2.5
			c-2.3,0-3.3-1.1-3.3-2.4c0-1,0.7-2.3,3-2.3c1,0,1.9,0.2,2.2,0.3C89,9,89,7.9,89,6.2h0.9c0,1.7,0,2.5,0.2,4.3
			c1.2,0.4,2.1,0.9,3.3,1.7L92.9,13.2z M86.9,10.8c-1.7,0-2.1,0.9-2.1,1.5c0,0.9,0.9,1.5,2.3,1.5c2.1,0,2.1-1.2,2.1-1.7
			c0-0.3,0-0.5,0-1C88.8,11.1,88,10.8,86.9,10.8z M89.3,3.2c1.7,0.7,2.6,1.2,4,2L92.9,6c-1.6-0.9-2.6-1.4-4-2L89.3,3.2z"/>
		<path class="st0" d="M97.3,2.5c-0.4,2-0.4,3.7-0.4,4.4c0,4,1.2,6.2,2.2,6.2c1.3,0,2.4-3.7,2.4-3.8l0.8,0.5c-0.5,1.4-1,2.3-1.2,2.7
			c-0.4,0.7-1.1,1.6-2,1.6c-1.3,0-3.2-2-3.2-7.4c0-1.5,0.1-2.9,0.4-4.4L97.3,2.5z M107.6,11.7c0-3.8-1.3-6.3-2.5-7.8l0.8-0.5
			c2.7,3.3,2.7,6.9,2.7,8L107.6,11.7z"/>
		<path class="st0" d="M117.3,3.1V0.6h0.9v2.5h5.8v0.8h-5.8v2.8h6.9v0.8h-6.5c1.2,2,3.5,4.2,6.6,5.7l-0.5,0.8
			c-1.9-1-4.7-2.8-6.4-5.6v6.9h-0.9v-7c-0.8,1.3-3.1,4.2-6.4,5.7l-0.6-0.8c2.8-1.1,5.3-3.4,6.6-5.6h-6.5V6.7h6.9V3.9h-5.9V3.1H117.3
			z"/>
		<path class="st0" d="M133.3,2.5V0.7h0.9v1.8h6.3v0.8h-6.3v4.5h6.9v0.8h-6.4c2,2.7,4.4,4.2,6.6,5.1l-0.6,0.9
			c-1.2-0.6-4.5-2.5-6.6-5.5v6.3h-0.9V9.1c-2.1,2.7-4.2,4.3-6.5,5.5l-0.6-0.8c1.5-0.7,4-2,6.5-5.2h-6.3V7.7h6.9V3.3h-6.3V2.5H133.3z
			 M129.9,7.2c-0.6-1.7-0.9-2.5-1.2-3l0.8-0.3c0.8,1.6,1.1,2.4,1.2,3L129.9,7.2z M136.8,6.9c0.5-0.8,0.9-1.7,1.3-3l0.9,0.3
			c-0.3,0.9-0.7,2-1.4,3.1L136.8,6.9z"/>
		<path class="st0" d="M148.7,1.3c-0.4,0.6-1,1.7-1,1.8c1.9-0.1,3.7-0.3,5.6-0.6v0.9c-2,0.3-4,0.5-6.1,0.6c-0.5,0.9-1.2,1.9-1.9,2.9
			c0.6-0.4,1.6-1.2,2.8-1.2c0.3,0,1.9,0,2.4,1.9c0.3-0.1,1.8-0.8,4.1-1.6l0.4,0.8c-1.4,0.5-2.6,0.9-4.3,1.6c0.1,0.8,0.1,1.5,0,3.4
			h-0.9c0.1-1.3,0.1-1.9,0.1-3c-2.5,1.1-3.5,2-3.5,3.1c0,1.7,2.5,1.7,3.6,1.7c1.8,0,3.3-0.2,4.2-0.3l-0.1,0.9
			c-1.8,0.2-3,0.3-3.9,0.3c-1.2,0-4.7,0-4.7-2.6c0-1.7,1.9-2.9,4.3-4c0-0.3-0.3-1.5-1.7-1.5c-2.2,0-3.9,2.4-4.7,3.6l-0.7-0.5
			c1.2-1.5,2.1-2.9,3.6-5.4c-1.2,0-1.8,0-3.4,0V3.2c1.9,0.1,3.6,0.1,3.8,0c0.4-0.6,0.6-1,1.1-2L148.7,1.3z"/>
		<path class="st0" d="M164.5,5.6V10h-6.3c0,2-0.3,3.5-1.3,5.3l-0.8-0.5c1.2-1.7,1.2-4.1,1.2-4.9V5.6H164.5z M163.9,3.8v0.7h-5.1
			V3.9c-1.1,0.9-1.4,1-2,1.3l-0.4-0.8c2-0.8,3.9-2.7,4.4-3.7h0.9c1.1,1.4,2.9,2.6,4.2,3.2l-0.5,0.7c-1.7-0.8-3.3-2.1-4.2-3.2
			c-0.7,1.1-1.8,2-2.4,2.5L163.9,3.8L163.9,3.8z M158.2,6.4v1h5.5v-1H158.2z M158.2,8.1v1.2h5.5V8.1H158.2z M165,11.1v4h-6.2v-4H165
			z M159.6,11.8v2.5h4.6v-2.5H159.6z M167.2,1.5v10.3h-0.9V1.5H167.2z M170.5,0.7v13.7c0,0.6-0.2,0.9-1,0.9h-2.2l-0.2-0.9h2.1
			c0.4,0,0.4-0.1,0.4-0.4V0.7H170.5z"/>
		<path class="st0" d="M172.5,9.8l8.6-7.3c-1.5,0.2-3.6,0.4-6.9,0.4L174.1,2c1.1,0,4.3,0,8-0.4l0.5,0.8c-1.8,1.3-3.8,3-5.8,4.8
			c0.9-0.4,2-0.9,3.6-0.9c2.7,0,4.4,1.5,4.4,3.8c0,3.2-2.8,4.6-5.5,4.6c-1.9,0-4-0.8-4-2.5c0-1.4,1.2-2.1,2.5-2.1
			c1.6,0,3.2,1,3.8,3.3c1.4-0.6,2.2-1.7,2.2-3.2c0-1.9-1.5-3-3.8-3c-3.2,0-5.2,1.8-6.9,3.5L172.5,9.8z M177.8,10.9
			c-1,0-1.7,0.4-1.7,1.3c0,1.1,1.6,1.7,3.1,1.7c0.7,0,1.2-0.1,1.5-0.2C180.4,12,179.3,10.9,177.8,10.9z"/>
	</g>
	<g>
		<path class="st0" d="M49.8,28v6.7L34.4,62h16v8.5H21.5v-6.7l15.7-27.4H21.5V28H49.8z"/>
		<path class="st0" d="M78.6,65.8c-2.2,3.8-5.9,5.3-11.5,5.3c-9.7,0-13.9-6.3-13.9-13.9v-4.3c0-9.6,4.9-13.8,12.9-13.8
			C75,39.1,79,44.2,79,53.8v3.6H62.4c0.1,3.5,1,5.9,4.7,5.9c2.9,0,3.5-0.9,4.6-2.3L78.6,65.8z M62.5,51.3h7.3
			c-0.2-3.4-1.5-4.4-3.6-4.4C63.8,46.8,62.8,48.5,62.5,51.3z"/>
		<path class="st0" d="M83.3,39.7h9V42c1-1.2,3.3-3,6.5-3c6,0,11.3,2.7,11.3,12.1v19.3h-9.2V52.9c0-4.1-1-6-3.9-6
			c-3.2,0-4.4,2-4.4,5.9v17.6h-9.2V39.7H83.3z"/>
		<path class="st0" d="M142,39.7l-9.6,12.4l11.3,18.4h-10.6L126.5,60l-2.1,2.7v7.8h-9.2V28h9.2v21.6l6.8-9.9
			C131.2,39.7,142,39.7,142,39.7z"/>
		<path class="st0" d="M168.8,65.8c-2.2,3.8-5.9,5.3-11.5,5.3c-9.7,0-13.9-6.3-13.9-13.9v-4.3c0-9.6,4.9-13.8,12.9-13.8
			c8.9,0,12.9,5.1,12.9,14.7v3.6h-16.6c0.1,3.5,1,5.9,4.7,5.9c2.9,0,3.5-0.9,4.6-2.3L168.8,65.8z M152.7,51.3h7.3
			c-0.2-3.4-1.5-4.4-3.6-4.4C154,46.8,153,48.5,152.7,51.3z"/>
		<path class="st0" d="M173.5,39.7h9V42c1-1.2,3.3-3,6.5-3c6,0,11.3,2.7,11.3,12.1v19.3h-9.2V52.9c0-4.1-1-6-3.9-6
			c-3.2,0-4.4,2-4.4,5.9v17.6h-9.2V39.7H173.5z"/>
	</g>
</g>
<g>
	<circle class="st0" cx="9.6" cy="52.5" r="9.6"/>
</g>
</svg>
