<?xml version="1.0" encoding="utf-8"?>
<!-- Generator: Adobe Illustrator 22.1.0, SVG Export Plug-In . SVG Version: 6.00 Build 0)  -->
<svg version="1.1" id="レイヤー_1" xmlns="http://www.w3.org/2000/svg" xmlns:xlink="http://www.w3.org/1999/xlink" x="0px"
	 y="0px" viewBox="0 0 400 400" style="enable-background:new 0 0 400 400;" xml:space="preserve">
<style type="text/css">
	.st0{fill:none;stroke:#008080;stroke-width:7;stroke-linecap:round;stroke-linejoin:round;stroke-miterlimit:10;}
</style>
<g>
	<path class="st0" d="M352.1,145.3h-99.3c-5.5,0-9.9,4.4-9.9,9.9v187.6c0,5.5,4.4,9.9,9.9,9.9h99.3c5.5,0,9.9-4.4,9.9-9.9V155.3
		C362,149.8,357.6,145.3,352.1,145.3z"/>
</g>
<g>
	<rect x="302.7" y="180.6" class="st0" width="31.8" height="31.8"/>
	<rect x="302.7" y="276.1" class="st0" width="31.8" height="31.8"/>
	<rect x="302.7" y="228.3" class="st0" width="31.8" height="31.8"/>
</g>
<g>
	<rect x="254.2" y="180.6" class="st0" width="31.8" height="31.8"/>
	<rect x="254.2" y="276.1" class="st0" width="31.8" height="31.8"/>
	<rect x="254.2" y="228.3" class="st0" width="31.8" height="31.8"/>
</g>
<path class="st0" d="M233.8,46.5H47.2c-5.5,0-9.9,4.4-9.9,9.9v287.4c0,5.5,4.4,9.9,9.9,9.9h186.5c5.5,0,9.9-4.4,9.9-9.9V56.5
	C243.7,51,239.2,46.5,233.8,46.5z"/>
<g>
	<rect x="74.3" y="82.5" class="st0" width="33.1" height="33.1"/>
	<rect x="173.6" y="82.5" class="st0" width="33.1" height="33.1"/>
	<rect x="124" y="82.5" class="st0" width="33.1" height="33.1"/>
</g>
<g>
	<rect x="74.3" y="133" class="st0" width="33.1" height="33.1"/>
	<rect x="173.6" y="133" class="st0" width="33.1" height="33.1"/>
	<rect x="124" y="133" class="st0" width="33.1" height="33.1"/>
</g>
<g>
	<rect x="74.3" y="183.4" class="st0" width="33.1" height="33.1"/>
	<rect x="173.6" y="183.4" class="st0" width="33.1" height="33.1"/>
	<rect x="124" y="183.4" class="st0" width="33.1" height="33.1"/>
</g>
<g>
	<rect x="74.3" y="233.8" class="st0" width="33.1" height="33.1"/>
	<rect x="173.6" y="233.8" class="st0" width="33.1" height="33.1"/>
	<rect x="124" y="233.8" class="st0" width="33.1" height="33.1"/>
</g>
<g>
	<rect x="74.3" y="284.2" class="st0" width="33.1" height="33.1"/>
	<rect x="173.6" y="284.2" class="st0" width="33.1" height="33.1"/>
	<rect x="124" y="284.2" class="st0" width="33.1" height="33.1"/>
</g>
</svg>
