<?xml version="1.0" encoding="utf-8"?>
<!-- Generator: Adobe Illustrator 22.1.0, SVG Export Plug-In . SVG Version: 6.00 Build 0)  -->
<svg version="1.1" id="レイヤー_1" xmlns="http://www.w3.org/2000/svg" xmlns:xlink="http://www.w3.org/1999/xlink" x="0px"
	 y="0px" viewBox="0 0 400 400" style="enable-background:new 0 0 400 400;" xml:space="preserve">
<style type="text/css">
	.st0{fill:none;stroke:#008080;stroke-width:7;stroke-linecap:round;stroke-linejoin:round;stroke-miterlimit:10;}
	.st1{fill:none;stroke:#008080;stroke-width:7;stroke-linecap:round;stroke-linejoin:round;}
</style>
<path class="st0" d="M55.9,52.4c-14.4,0-26.3,11.9-26.3,26.3v187.1c0,14.4,11.9,26.3,26.3,26.3h125.8V311h-47.6
	c-5.6-0.1-10.5,2.2-13.7,5.7c-3.1,3.5-4.6,7.9-4.6,12.3c0,4.4,1.4,8.8,4.6,12.3c3.1,3.5,8.1,5.7,13.7,5.6h131.2
	c5.6,0.1,10.5-2.2,13.7-5.6c3.1-3.5,4.6-8,4.6-12.3c0-4.4-1.4-8.8-4.6-12.3c-3.1-3.5-8.1-5.7-13.7-5.7h-47.6v-18.8H345
	c14.4,0,26.3-11.9,26.3-26.3V78.7c0-14.4-11.9-26.3-26.3-26.3H55.9z"/>
<path class="st0" d="M59.9,77.1c-3.1,0-5.6,2.5-5.6,5.6v179.1c0,3.1,2.5,5.6,5.6,5.6h281c3.1,0,5.6-2.5,5.6-5.6V82.7
	c0-3.1-2.5-5.6-5.6-5.6H59.9z"/>
<g>
	<line class="st1" x1="232.9" y1="115.3" x2="264.1" y2="146.5"/>
	<polygon class="st1" points="166.6,246.6 134.1,245.9 133.4,213.4 247.4,99.4 280.6,132.5 	"/>
	<polyline class="st1" points="133.4,213.4 147.9,214.6 150.3,229.6 165.2,231.3 166.6,246.6 	"/>
</g>
</svg>
