<?xml version="1.0" encoding="utf-8"?>
<!-- Generator: Adobe Illustrator 22.1.0, SVG Export Plug-In . SVG Version: 6.00 Build 0)  -->
<svg version="1.1" id="レイヤー_1" xmlns="http://www.w3.org/2000/svg" xmlns:xlink="http://www.w3.org/1999/xlink" x="0px"
	 y="0px" viewBox="0 0 400 400" style="enable-background:new 0 0 400 400;" xml:space="preserve">
<style type="text/css">
	.st0{fill:#008080;}
	.st1{fill:none;stroke:#008080;stroke-width:7;stroke-linecap:round;stroke-linejoin:round;stroke-miterlimit:10;}
</style>
<g>
	<path class="st0" d="M200,58c38.2,0,74.1,14.9,101.1,41.9c27,27,41.9,62.9,41.9,101.1s-14.9,74.1-41.9,101.1
		c-27,27-62.9,41.9-101.1,41.9s-74.1-14.9-101.1-41.9C71.9,275.1,57,239.2,57,201s14.9-74.1,41.9-101.1S161.8,58,200,58 M200,51
		c-82.8,0-150,67.2-150,150s67.2,150,150,150s150-67.2,150-150S282.8,51,200,51L200,51z"/>
</g>
<path class="st1" d="M233.9,220.7l29.1-103.4c0.6-2.2-0.2-4.5-2.1-5.8c-1.8-1.3-4.3-1.3-6.2,0l-87.2,62.7c-1,0.7-1.7,1.7-2,2.9
	l-29.1,103.4c-0.6,2.2,0.2,4.5,2.1,5.8c0.9,0.6,2,1,3,1c1.1,0,2.2-0.3,3.1-1l87.2-62.7C232.8,222.9,233.5,221.9,233.9,220.7z"/>
<circle class="st1" cx="200" cy="200" r="15"/>
</svg>
