<?xml version="1.0" encoding="utf-8"?>
<!-- Generator: Adobe Illustrator 22.1.0, SVG Export Plug-In . SVG Version: 6.00 Build 0)  -->
<svg version="1.1" id="レイヤー_1" xmlns="http://www.w3.org/2000/svg" xmlns:xlink="http://www.w3.org/1999/xlink" x="0px"
	 y="0px" viewBox="0 0 400 400" style="enable-background:new 0 0 400 400;" xml:space="preserve">
<style type="text/css">
	.st0{fill:none;stroke:#008080;stroke-width:7;stroke-linecap:round;stroke-linejoin:round;stroke-miterlimit:10;}
	
		.st1{fill:none;stroke:#008080;stroke-width:6;stroke-linecap:round;stroke-linejoin:round;stroke-miterlimit:10;enable-background:new    ;}
	.st2{fill:none;stroke:#008080;stroke-width:4;stroke-linecap:round;stroke-linejoin:round;stroke-miterlimit:10;}
	.st3{fill:none;stroke:#008080;stroke-width:7;stroke-linecap:round;stroke-linejoin:round;}
	.st4{fill:none;stroke:#008080;stroke-width:7;stroke-linecap:round;stroke-linejoin:round;stroke-dasharray:15.5338,15.5338;}
	.st5{fill:none;stroke:#008080;stroke-width:7;stroke-linecap:round;stroke-linejoin:round;stroke-dasharray:14.6052,14.6052;}
	
		.st6{fill:none;stroke:#008080;stroke-width:7;stroke-linecap:round;stroke-linejoin:round;stroke-miterlimit:10;stroke-dasharray:15,15;}
	.st7{fill:none;stroke:#008080;stroke-width:7;stroke-linecap:round;stroke-linejoin:round;stroke-dasharray:14.2868,14.2868;}
</style>
<g>
	<path class="st0" d="M370.7,159.7l-166.6-121c-1.9-1.4-4.4-1.4-6.2,0l-166.6,121c-1.9,1.4-2.6,3.8-1.9,5.9L93,361.5
		c0.7,2.2,2.8,3.7,5.1,3.7h205.9c2.3,0,4.3-1.5,5.1-3.7l63.6-195.8C373.3,163.5,372.5,161.1,370.7,159.7z"/>
</g>
<rect x="160.6" y="155.2" class="st1" width="81" height="137.7"/>
<g>
	<rect x="175.2" y="178" class="st2" width="13" height="13"/>
	<rect x="214" y="178" class="st2" width="13" height="13"/>
	<rect x="194.6" y="178" class="st2" width="13" height="13"/>
</g>
<g>
	<rect x="175.2" y="197.8" class="st2" width="13" height="13"/>
	<rect x="214" y="197.8" class="st2" width="13" height="13"/>
	<rect x="194.6" y="197.8" class="st2" width="13" height="13"/>
</g>
<g>
	<rect x="175.2" y="217.5" class="st2" width="13" height="13"/>
	<rect x="214" y="217.5" class="st2" width="13" height="13"/>
	<rect x="194.6" y="217.5" class="st2" width="13" height="13"/>
</g>
<g>
	<rect x="175.2" y="237.3" class="st2" width="13" height="13"/>
	<rect x="214" y="237.3" class="st2" width="13" height="13"/>
	<rect x="194.6" y="237.3" class="st2" width="13" height="13"/>
</g>
<g>
	<rect x="175.2" y="257" class="st2" width="13" height="13"/>
	<rect x="214" y="257" class="st2" width="13" height="13"/>
	<rect x="194.6" y="257" class="st2" width="13" height="13"/>
</g>
<g>
	<g>
		<line class="st3" x1="200.4" y1="49.8" x2="200.4" y2="57.3"/>
		<line class="st4" x1="200.3" y1="72.9" x2="199.9" y2="127.2"/>
		<line class="st3" x1="199.8" y1="135" x2="199.8" y2="142.5"/>
	</g>
</g>
<g>
	<g>
		<line class="st3" x1="42.4" y1="169.8" x2="49.4" y2="172.6"/>
		<line class="st5" x1="62.9" y1="178.1" x2="137.4" y2="208.3"/>
		<line class="st3" x1="144.1" y1="211" x2="151.1" y2="213.8"/>
	</g>
</g>
<line class="st6" x1="103.4" y1="355.8" x2="157.8" y2="301.2"/>
<g>
	<g>
		<g>
			<g>
				<line class="st3" x1="358.4" y1="166.8" x2="351.5" y2="169.6"/>
				<line class="st7" x1="338.2" y1="175" x2="265.3" y2="204.3"/>
				<line class="st3" x1="258.7" y1="207" x2="251.8" y2="209.8"/>
			</g>
		</g>
	</g>
	<line class="st6" x1="297.4" y1="352.8" x2="249.1" y2="301.2"/>
</g>
</svg>
