<?xml version="1.0" encoding="utf-8"?>
<!-- Generator: Adobe Illustrator 22.1.0, SVG Export Plug-In . SVG Version: 6.00 Build 0)  -->
<svg version="1.1" id="レイヤー_1" xmlns="http://www.w3.org/2000/svg" xmlns:xlink="http://www.w3.org/1999/xlink" x="0px"
	 y="0px" viewBox="0 0 400 400" style="enable-background:new 0 0 400 400;" xml:space="preserve">
<style type="text/css">
	.st0{fill:none;stroke:#008080;stroke-width:7;stroke-linecap:round;stroke-linejoin:round;}
	.st1{fill:none;stroke:#008080;stroke-width:7;stroke-linecap:round;stroke-linejoin:round;stroke-miterlimit:10;}
</style>
<path class="st0" d="M316.3,107.5c0,0-19.3-26.7-56.7-15"/>
<path class="st1" d="M200.4,85.9C111.2-7.5-28.2,125.3,60.2,219.2l11.2,10.3l129.9-3.9l8.7,0.1l0-0.4c2.7-20.4,3.6-35.1,2.8-37.5
	l-0.2-0.7l-8.2-4.9c-0.5-0.3-0.9-0.8-1-1.5l-4.1-24.9c-0.1-0.6,0-1.1,0.4-1.6c0.3-0.5,0.9-0.8,1.4-0.8l35.1-4.7c0.1,0,0.2,0,0.3,0
	c1,0,1.9,0.7,2.1,1.7l0.7,4c6.8,39.2,14.8,82.7,16,86.4c1.4,4.2,1,8.2-1,11.7c-3.2,5.5-10,8.9-22,11.2c-1.9,0.4-7.6,1.3-15.5,2.5
	c-11.8,1.8-54.8,8.1-90.9,13.3l74.7,68.7v0l0,0l0,0v0l140.2-128.9C429,125.3,289.6-7.5,200.4,85.9z"/>
</svg>
