<?xml version="1.0" encoding="utf-8"?>
<!-- Generator: Adobe Illustrator 22.1.0, SVG Export Plug-In . SVG Version: 6.00 Build 0)  -->
<svg version="1.1" id="レイヤー_1" xmlns="http://www.w3.org/2000/svg" xmlns:xlink="http://www.w3.org/1999/xlink" x="0px"
	 y="0px" viewBox="0 0 400 400" style="enable-background:new 0 0 400 400;" xml:space="preserve">
<style type="text/css">
	.st0{fill:none;stroke:#008080;stroke-width:7;stroke-linejoin:round;}
	.st1{fill:none;stroke:#008080;stroke-width:7;stroke-linecap:round;stroke-linejoin:round;stroke-miterlimit:10;}
</style>
<g>
	<path class="st0" d="M236.3,327.4c10.9,0,64.3,0,78.3,0c0.3,0,0.6,0,0.9,0c14.1,0,67.5,0,78.3,0c0-34.6-27.3-84.8-52.4-72.3
		c-15.7,7.8-23.1,9.8-26.4,10.1c-3.2-0.3-9.8-2-23.6-8.7"/>
	<path class="st0" d="M163.6,327.4c-10.9,0-64.3,0-78.3,0c-0.3,0-0.6,0-0.9,0c-14.1,0-67.5,0-78.3,0c0-34.6,27.3-84.8,52.4-72.3
		c15.7,7.8,23.1,9.8,26.4,10.1c3.1-0.3,9.8-2,23.6-8.7"/>
	<path class="st0" d="M247.2,179c4.6-8,7.2-43.1,7.2-52.9c0-29.9-24.3-54.2-54.2-54.2c-29.9,0-54.2,24.2-54.2,54.2
		c0,10.1,2.8,45.5,7.6,53.6c9.4,15.9,26.8,30.2,46.6,30.2C220.3,209.9,237.8,195.3,247.2,179z"/>
	<path class="st0" d="M237.4,224.3c-22.4,11.2-32.9,13.9-37.7,14.4c-4.8-0.5-15.3-3.2-37.7-14.4c-35.8-17.9-74.7,53.7-74.7,103.1
		c15.5,0,91.7,0,111.7,0c0.4,0,0.9,0,1.2,0c20.1,0,96.2,0,111.8,0C312.1,278,273.2,206.4,237.4,224.3z"/>
</g>
<path class="st1" d="M130.8,150c-33.3,0-65.2,0-98.8,0c16.6,32,32.5,62.5,49.4,95.1C98.2,212.8,114.2,182,130.8,150z"/>
<path class="st1" d="M365.6,195c-16.4-16.6-34.2-34.7-51.4-52.2c-15.9,15.9-33.4,33.5-50.1,50.1c17.3,17.3,35,35,52,52.1
	C332.1,228.8,349.5,211.3,365.6,195z"/>
</svg>
